<?xml version="1.0" encoding="UTF-8"?>
<!DOCTYPE svg PUBLIC "-//W3C//DTD SVG 1.1//EN" "http://www.w3.org/Graphics/SVG/1.1/DTD/svg11.dtd">
<svg xmlns="http://www.w3.org/2000/svg" version="1.1" width="48px" height="23px" style="shape-rendering:geometricPrecision; text-rendering:geometricPrecision; image-rendering:optimizeQuality; fill-rule:evenodd; clip-rule:evenodd" xmlns:xlink="http://www.w3.org/1999/xlink">
<g><path style="opacity:1" fill="white" d="M -0.5,-0.5 C 15.5,-0.5 31.5,-0.5 47.5,-0.5C 47.5,7.16667 47.5,14.8333 47.5,22.5C 31.5,22.5 15.5,22.5 -0.5,22.5C -0.5,17.8333 -0.5,13.1667 -0.5,8.5C 5.84526,11.6158 12.5119,13.9491 19.5,15.5C 21.6934,16.7969 24.0268,16.7969 26.5,15.5C 26.1373,14.8165 25.8039,14.1499 25.5,13.5C 25.0472,12.5416 24.3805,11.7083 23.5,11C 23.8333,10.6667 24.1667,10.3333 24.5,10C 31.6787,9.82854 38.6787,9.32854 45.5,8.5C 46.0431,8.44001 46.3764,8.10667 46.5,7.5C 38.5208,6.33506 30.5208,6.16839 22.5,7C 21.4734,7.51328 20.4734,8.01328 19.5,8.5C 18.8333,9.83333 18.1667,11.1667 17.5,12.5C 16.8333,12.5 16.1667,12.5 15.5,12.5C 15.5,12.1667 15.5,11.8333 15.5,11.5C 12.855,9.68964 9.85505,8.68964 6.5,8.5C 4.19438,8.00745 1.86105,7.67412 -0.5,7.5C -0.5,4.83333 -0.5,2.16667 -0.5,-0.5 Z"/></g>
<g><path style="opacity:1" fill="#3f3f3f" d="M 45.5,8.5 C 37.8261,8.33365 30.1594,8.50031 22.5,9C 21.5128,11.5522 22.5128,13.0522 25.5,13.5C 25.8039,14.1499 26.1373,14.8165 26.5,15.5C 24.0268,16.7969 21.6934,16.7969 19.5,15.5C 17.7226,14.3995 15.7226,13.5662 13.5,13C 14.0944,12.5357 14.7611,12.369 15.5,12.5C 16.1667,12.5 16.8333,12.5 17.5,12.5C 18.3864,13.7759 19.3864,13.7759 20.5,12.5C 19.7542,11.2638 19.4208,9.93047 19.5,8.5C 20.4734,8.01328 21.4734,7.51328 22.5,7C 30.5208,6.16839 38.5208,6.33506 46.5,7.5C 46.3764,8.10667 46.0431,8.44001 45.5,8.5 Z"/></g>
<g><path style="opacity:1" fill="#c5c5c5" d="M 6.5,8.5 C 9.85505,8.68964 12.855,9.68964 15.5,11.5C 12.0836,11.4725 9.08358,10.4725 6.5,8.5 Z"/></g>
<g><path style="opacity:1" fill="#a7a7a7" d="M 45.5,8.5 C 38.6787,9.32854 31.6787,9.82854 24.5,10C 24.1667,10.3333 23.8333,10.6667 23.5,11C 24.3805,11.7083 25.0472,12.5416 25.5,13.5C 22.5128,13.0522 21.5128,11.5522 22.5,9C 30.1594,8.50031 37.8261,8.33365 45.5,8.5 Z"/></g>
<g><path style="opacity:1" fill="#5d5d5d" d="M -0.5,8.5 C -0.5,8.16667 -0.5,7.83333 -0.5,7.5C 1.86105,7.67412 4.19438,8.00745 6.5,8.5C 9.08358,10.4725 12.0836,11.4725 15.5,11.5C 15.5,11.8333 15.5,12.1667 15.5,12.5C 14.7611,12.369 14.0944,12.5357 13.5,13C 15.7226,13.5662 17.7226,14.3995 19.5,15.5C 12.5119,13.9491 5.84526,11.6158 -0.5,8.5 Z"/></g>
<g><path style="opacity:1" fill="#797979" d="M 19.5,8.5 C 19.4208,9.93047 19.7542,11.2638 20.5,12.5C 19.3864,13.7759 18.3864,13.7759 17.5,12.5C 18.1667,11.1667 18.8333,9.83333 19.5,8.5 Z"/></g>
</svg>
